<svg width="351" height="244" viewBox="0 0 351 244" fill="none" xmlns="http://www.w3.org/2000/svg">
<g opacity="0.3">
<path d="M131.667 139.333H88.3337C85.0373 139.333 81.815 138.356 79.0742 136.524C76.3333 134.693 74.1971 132.09 72.9357 129.045C71.6742 125.999 71.3442 122.648 71.9872 119.415C72.6303 116.182 74.2177 113.212 76.5486 110.882C78.8794 108.551 81.8491 106.963 85.0822 106.32C88.3152 105.677 91.6663 106.007 94.7117 107.269C97.7572 108.53 100.36 110.666 102.191 113.407C104.023 116.148 105 119.37 105 122.667V125.047M125 179.333H28.3337C23.7188 179.333 19.2075 180.702 15.3704 183.266C11.5332 185.83 8.54253 189.474 6.77649 193.737C5.01044 198.001 4.54836 202.693 5.44868 207.219C6.349 211.745 8.57128 215.903 11.8345 219.166C15.0977 222.429 19.2553 224.651 23.7816 225.552C28.3078 226.452 32.9993 225.99 37.2629 224.224C41.5266 222.458 45.1707 219.467 47.7346 215.63C50.2985 211.793 51.667 207.282 51.667 202.667V199.333" stroke="#03A9F3" stroke-width="8.5" stroke-linecap="round"/>
<path opacity="0.5" d="M138.333 159.333H28.3335C23.7186 159.333 19.2074 157.965 15.3702 155.401C11.5331 152.837 8.54238 149.193 6.77633 144.929C5.01029 140.666 4.5482 135.974 5.44853 131.448C6.34885 126.922 8.57113 122.764 11.8344 119.501C15.0976 116.237 19.2552 114.015 23.7814 113.115C28.3076 112.215 32.9992 112.677 37.2628 114.443C41.5264 116.209 45.1706 119.199 47.7345 123.037C50.2984 126.874 51.6668 131.385 51.6668 136V139.333" stroke="#03A9F3" stroke-width="8.5" stroke-linecap="round"/>
</g>
<g clip-path="url(#clip0_191_1996)">
<path d="M114.966 32.4763C114.966 25.874 109.591 20.5044 102.984 20.5044C96.3759 20.5044 91 25.874 91 32.4763C91 39.0786 96.3759 44.4501 102.982 44.4501C109.59 44.4501 114.966 39.0786 114.966 32.4763ZM102.984 37.3104C100.315 37.3104 98.1456 35.1407 98.1456 32.4763C98.1456 29.812 100.315 27.644 102.982 27.644C105.65 27.644 107.82 29.812 107.82 32.4763C107.82 35.1407 105.65 37.3104 102.984 37.3104Z" fill="#B3C0C7"/>
<path d="M131.451 44.4501C138.058 44.4501 143.434 39.0786 143.434 32.4763C143.434 25.874 138.058 20.5044 131.451 20.5044C124.845 20.5044 119.469 25.874 119.469 32.4763C119.469 39.0786 124.843 44.4501 131.451 44.4501ZM131.451 27.644C134.119 27.644 136.289 29.812 136.289 32.4763C136.289 35.1407 134.119 37.3104 131.451 37.3104C128.784 37.3104 126.614 35.1407 126.614 32.4763C126.614 29.812 128.784 27.644 131.451 27.644Z" fill="#B3C0C7"/>
<path d="M159.92 44.4501C166.526 44.4501 171.902 39.0786 171.902 32.4763C171.902 25.874 166.526 20.5044 159.92 20.5044C153.312 20.5044 147.936 25.874 147.936 32.4763C147.936 39.0786 153.312 44.4501 159.92 44.4501ZM159.92 27.644C162.586 27.644 164.756 29.812 164.756 32.4763C164.756 35.1407 162.586 37.3104 159.92 37.3104C157.251 37.3104 155.082 35.1407 155.082 32.4763C155.082 29.812 157.251 27.644 159.92 27.644Z" fill="#B3C0C7"/>
<path d="M199.455 36.0459H286.472C288.445 36.0459 290.045 34.4488 290.045 32.4761C290.045 30.5052 288.445 28.9062 286.472 28.9062H199.455C197.48 28.9062 195.882 30.5052 195.882 32.4761C195.882 34.4488 197.48 36.0459 199.455 36.0459Z" fill="#B3C0C7"/>
<path d="M314.693 20.0692C314.673 19.9465 314.65 19.8256 314.626 19.7029C314.615 19.6434 314.604 19.5821 314.591 19.5207C313.197 12.7362 307.174 7.61572 299.976 7.61572H85.9109C77.6861 7.61572 70.9927 14.3017 70.9927 22.5216V221.123C70.9927 229.343 77.6861 236.029 85.9109 236.029H299.976C308.201 236.029 314.894 229.341 314.894 221.123V22.5216C314.894 21.6868 314.825 20.8687 314.693 20.0692ZM299.976 228.889H85.9109C81.6254 228.889 78.1382 225.405 78.1382 221.123V57.3385H98.0546C100.029 57.3385 101.627 55.7395 101.627 53.7687C101.627 51.796 100.029 50.1989 98.0546 50.1989H78.1382V22.5216C78.1382 18.2397 81.6254 14.7554 85.9109 14.7554H299.976C303.458 14.7554 306.413 17.0553 307.399 20.2142C307.408 20.2458 307.417 20.2756 307.427 20.3053C307.455 20.3983 307.479 20.4894 307.503 20.5824C307.512 20.614 307.52 20.6456 307.527 20.6772C307.55 20.7701 307.572 20.865 307.591 20.9579C307.63 21.1476 307.661 21.3409 307.685 21.5343C307.695 21.5994 307.702 21.6645 307.708 21.7295C307.736 21.9898 307.749 22.2538 307.749 22.5216V50.1989H111.393C109.421 50.1989 107.82 51.796 107.82 53.7687C107.82 55.7395 109.421 57.3385 111.393 57.3385H307.749V221.123C307.749 225.405 304.262 228.889 299.976 228.889Z" fill="#B3C0C7"/>
</g>
<path d="M159.329 166.384C157.537 166.384 156.033 165.808 154.817 164.656C153.601 163.472 152.993 161.968 152.993 160.144C152.993 158.288 153.601 156.8 154.817 155.68C156.033 154.56 157.537 154 159.329 154C161.121 154 162.625 154.56 163.841 155.68C165.057 156.8 165.665 158.288 165.665 160.144C165.665 161.968 165.057 163.472 163.841 164.656C162.625 165.808 161.121 166.384 159.329 166.384Z" fill="#03A9F3"/>
<path d="M181.587 166.384C179.795 166.384 178.291 165.808 177.075 164.656C175.859 163.472 175.251 161.968 175.251 160.144C175.251 158.288 175.859 156.8 177.075 155.68C178.291 154.56 179.795 154 181.587 154C183.379 154 184.883 154.56 186.099 155.68C187.315 156.8 187.923 158.288 187.923 160.144C187.923 161.968 187.315 163.472 186.099 164.656C184.883 165.808 183.379 166.384 181.587 166.384Z" fill="#03A9F3"/>
<path d="M203.845 166.384C202.053 166.384 200.549 165.808 199.333 164.656C198.117 163.472 197.509 161.968 197.509 160.144C197.509 158.288 198.117 156.8 199.333 155.68C200.549 154.56 202.053 154 203.845 154C205.637 154 207.141 154.56 208.357 155.68C209.573 156.8 210.181 158.288 210.181 160.144C210.181 161.968 209.573 163.472 208.357 164.656C207.141 165.808 205.637 166.384 203.845 166.384Z" fill="#03A9F3"/>
<path d="M226.104 166.384C224.312 166.384 222.808 165.808 221.592 164.656C220.376 163.472 219.768 161.968 219.768 160.144C219.768 158.288 220.376 156.8 221.592 155.68C222.808 154.56 224.312 154 226.104 154C227.896 154 229.4 154.56 230.616 155.68C231.832 156.8 232.44 158.288 232.44 160.144C232.44 161.968 231.832 163.472 230.616 164.656C229.4 165.808 227.896 166.384 226.104 166.384Z" fill="#03A9F3"/>
<path d="M195.213 171.511C218.848 195.139 256.089 196.788 281.655 176.517L286.982 181.839L282.558 186.26L318.683 222.382C317.339 224.508 316.756 226.145 317.429 226.812L319.406 228.786C322.621 232.007 347.824 206.795 344.609 203.58L342.632 201.608C341.965 200.939 340.331 201.516 338.211 202.86L302.08 166.738L297.659 171.159L292.335 165.835C312.602 140.266 310.957 103.022 287.331 79.3906C261.894 53.9564 220.65 53.9564 195.213 79.3906C169.774 104.833 169.779 146.074 195.213 171.511ZM202.889 87.0717C224.085 65.8733 258.463 65.8733 279.653 87.0717C300.851 108.265 300.851 142.643 279.653 163.835C258.457 185.037 224.09 185.031 202.889 163.835C181.699 142.637 181.693 108.27 202.889 87.0717Z" fill="#78909C"/>
<mask id="mask0_191_1996" style="mask-type:alpha" maskUnits="userSpaceOnUse" x="175" y="60" width="170" height="169">
<path d="M194.989 171.287C218.623 194.915 255.864 196.564 281.431 176.293L286.758 181.615L282.334 186.036L318.458 222.158C317.114 224.284 316.532 225.921 317.204 226.588L319.181 228.562C322.396 231.783 347.6 206.571 344.385 203.356L342.407 201.384C341.741 200.715 340.107 201.291 337.986 202.636L301.856 166.514L297.434 170.935L292.11 165.611C312.378 140.042 310.732 102.798 287.107 79.1664C261.67 53.7323 220.426 53.7323 194.989 79.1664C169.549 104.609 169.555 145.85 194.989 171.287ZM202.664 86.8476C223.86 65.6492 258.238 65.6492 279.428 86.8476C300.627 108.04 300.627 142.419 279.428 163.611C258.233 184.813 223.866 184.807 202.664 163.611C181.474 142.413 181.469 108.046 202.664 86.8476Z" fill="#525854"/>
</mask>
<g mask="url(#mask0_191_1996)">
<path d="M192.289 174.887C215.923 198.515 253.164 200.164 278.731 179.893L284.058 185.215L279.633 189.636L315.758 225.758C314.414 227.884 313.832 229.521 314.504 230.188L316.481 232.162C319.696 235.383 344.899 210.171 341.685 206.956L339.707 204.984C339.041 204.315 337.407 204.892 335.286 206.236L299.155 170.114L294.734 174.535L289.41 169.211C309.677 143.642 308.032 106.398 284.406 82.7665C258.969 57.3324 217.726 57.3324 192.289 82.7665C166.849 108.209 166.855 149.45 192.289 174.887ZM199.964 90.4477C221.16 69.2493 255.538 69.2493 276.728 90.4477C297.926 111.64 297.926 146.019 276.728 167.211C255.532 188.413 221.165 188.407 199.964 167.211C178.774 146.013 178.769 111.646 199.964 90.4477Z" fill="#455A64"/>
</g>
<path opacity="0.75" d="M194.932 121.917C197.269 128.123 200.902 133.76 205.589 138.452C223.908 156.773 253.617 156.773 271.944 138.444C279.689 130.721 284.48 120.526 285.481 109.634C291.826 126.366 288.293 145.99 274.821 159.462C256.497 177.786 226.788 177.786 208.464 159.462C198.186 149.193 193.684 135.338 194.932 121.917Z" fill="white"/>
<defs>
<clipPath id="clip0_191_1996">
<rect width="243.902" height="243.7" fill="white" transform="translate(70.9927)"/>
</clipPath>
</defs>
</svg>
