<?xml version="1.0" encoding="UTF-8"?>
<!DOCTYPE svg PUBLIC "-//W3C//DTD SVG 1.1//EN" "http://www.w3.org/Graphics/SVG/1.1/DTD/svg11.dtd">
<!-- Creator: CorelDRAW X7 -->
<svg xmlns="http://www.w3.org/2000/svg" xml:space="preserve" width="5.18273in" height="0.730512in" version="1.1" style="shape-rendering:geometricPrecision; text-rendering:geometricPrecision; image-rendering:optimizeQuality; fill-rule:evenodd; clip-rule:evenodd"
viewBox="0 0 384047 54132"
 xmlns:xlink="http://www.w3.org/1999/xlink">
 <defs>
  <style type="text/css">
   <![CDATA[
    .fil1 {fill:#FCEC0B}
    .fil0 {fill:white}
   ]]>
  </style>
 </defs>
 <g id="Layer_x0020_1">
  <metadata id="CorelCorpID_0Corel-Layer"/>
  <path class="fil0" d="M130616 24004c-2274,-1262 -9626,-15941 -11824,-19767 -1999,-3482 -7936,-2613 -9926,-1713 -2940,1330 -2423,1980 -2424,6834l11 28043c1,8837 -1168,15011 5147,15053 7254,49 5876,-4928 5878,-17954 0,-1990 -308,-7932 378,-9375l591 -4c3081,1131 4379,14513 13115,13811 4234,-340 6394,-6021 7977,-9696 622,-1445 2014,-4541 3189,-5305 800,-520 31,-331 1328,-433 1017,2119 381,18445 388,24057 -2,4522 2165,4637 5147,4659 7498,55 5319,-4210 5333,-23516 4,-4518 336,-21754 -122,-23643 -1254,-5170 -9450,-4469 -11235,-2145l-10627 18939c-936,1531 -594,1597 -2324,2155z"/>
  <path class="fil0" d="M242726 31599c1281,-1511 11870,-500 13523,624 3410,2320 3317,8031 581,10500 -2065,1864 -9052,3022 -13052,1978 -2734,-714 -1532,-12535 -1052,-13102zm672 -22171c2293,-1416 10420,-173 12237,1104 3632,2550 3580,7163 404,9639 -3206,2500 -12093,1881 -12663,1661 -1936,-1220 -1502,-10801 22,-12404zm-13011 -1037l72 43516c75,2581 -502,2205 10395,2206 8230,1 16257,250 22232,-2169 5210,-2623 10256,-7540 7356,-17096 -783,-2580 -2269,-4463 -3920,-6189 -4802,-5016 2545,-3598 3040,-11533 532,-8542 -5040,-14009 -11348,-15865 -3331,-981 -20651,-1841 -24428,-758 -3927,1127 -3391,5672 -3399,7888z"/>
  <path class="fil0" d="M52482 10809c-10,6298 -787,27524 607,30654 400,898 920,2039 1388,2939 4180,8052 18310,10075 25388,7437 7593,-2831 11475,-6796 11475,-15888l-10 -29494c0,-2727 -1664,-4290 -3851,-4767 -3494,-763 -6917,893 -7005,2842 -125,4285 190,34247 -572,35883 -2000,4295 -9033,4078 -13001,2680 -3185,-1122 -2834,-4771 -2824,-8595l-4 -27559c4,-2461 -341,-3509 -1833,-4579 -1663,-1193 -4134,-2062 -8424,-213 -1956,1934 -1322,1165 -1334,8660z"/>
  <path class="fil0" d="M37701 12404c-1877,-15477 -35622,-13269 -36509,308 -268,4113 -70,6107 1940,8558 4230,5158 8532,6400 15133,9484 1523,711 1814,1075 3515,1766 8131,3303 6692,9751 2090,11225 -2793,895 -9313,1025 -11844,-1843 -1732,-1964 387,-8681 -7588,-7957 -3300,300 -4591,2185 -4423,5877 323,7124 9051,12651 16476,12937 4221,162 9569,65 13213,-1708 6015,-2927 10633,-6488 9063,-15281 -2185,-12233 -28950,-13666 -27358,-21922 830,-4302 9286,-5585 13860,-3016 2976,1672 1434,4450 4440,5674 3113,1267 8518,244 7992,-4102z"/>
  <circle class="fil1" cx="191537" cy="25895" r="17068"/>
  <circle class="fil1" cx="304625" cy="25895" r="17068"/>
  <path class="fil0" d="M360539 3458c12983,0 23508,10525 23508,23508 0,12984 -10525,23509 -23508,23509 -12983,0 -23508,-10525 -23508,-23509 0,-12983 10525,-23508 23508,-23508zm0 10450c7212,0 13058,5847 13058,13058 0,7212 -5846,13059 -13058,13059 -7212,0 -13058,-5847 -13058,-13059 0,-7211 5846,-13058 13058,-13058z"/>
 </g>
</svg>
